<svg xmlns="http://www.w3.org/2000/svg" width="81" height="74" fill="none" viewBox="0 0 81 74">
    <path fill="#C379FD" d="M65.762 0H4.985A4.99 4.99 0 0 0 0 4.985v50.648a4.99 4.99 0 0 0 4.985 4.985h39.806a1.187 1.187 0 0 0 0-2.373h-4.432v-7.677a4.971 4.971 0 0 0-3.068-4.602l-6.234-2.597a1.342 1.342 0 0 1-.828-1.242v-1.853a8.813 8.813 0 0 0 2.533-6.166v-5.065c0-4.145-3.94-7.518-8.784-7.518-4.843 0-8.784 3.373-8.784 7.518v5.065c0 2.33.935 4.542 2.533 6.166v1.853c0 .545-.326 1.032-.829 1.242l-6.233 2.597a4.972 4.972 0 0 0-3.068 4.602v7.677H4.985a2.615 2.615 0 0 1-2.612-2.612V15.035h66.001V34.74a1.187 1.187 0 0 0 2.373 0V4.985A4.99 4.99 0 0 0 65.762 0zM9.97 50.568c0-1.058.631-2.004 1.608-2.411l6.233-2.597a3.709 3.709 0 0 0 2.289-3.433v-.257a1.186 1.186 0 0 0 .671-2.21 6.436 6.436 0 0 1-3.204-5.552v-5.065c0-2.837 2.876-5.145 6.411-5.145 3.535 0 6.41 2.308 6.41 5.145v5.065a6.436 6.436 0 0 1-3.205 5.553 1.187 1.187 0 0 0 .595 2.214c.026 0 .052-.003.079-.005v.257c0 1.506.898 2.854 2.288 3.433l6.234 2.597a2.605 2.605 0 0 1 1.607 2.411v7.677H9.97v-7.677zm58.404-37.906h-66V4.985a2.615 2.615 0 0 1 2.611-2.612h60.777a2.615 2.615 0 0 1 2.612 2.612v7.677z"/>
    <path fill="#C379FD" d="M6.264 6.332H6.25c-.655 0-1.18.531-1.18 1.187 0 .655.537 1.186 1.193 1.186a1.187 1.187 0 0 0 0-2.373zM13.848 6.332h-.013c-.655 0-1.18.531-1.18 1.187 0 .655.538 1.186 1.193 1.186a1.187 1.187 0 0 0 0-2.373zM10.05 6.332h-.013c-.655 0-1.18.531-1.18 1.187 0 .655.538 1.186 1.193 1.186a1.187 1.187 0 0 0 0-2.373zM64.496 6.332H18.913a1.187 1.187 0 0 0 0 2.373h45.583a1.187 1.187 0 0 0 0-2.373zM80.204 42.73L63.11 36.785a1.184 1.184 0 0 0-.78 0L50.039 41.06a1.187 1.187 0 0 0 .78 2.242l11.902-4.14 15.85 5.513c-.138 1.515-.602 4.91-2.144 8.975-1.879 4.955-5.774 11.875-13.706 17.036-7.897-5.14-11.79-12.022-13.673-16.95-2.108-5.518-2.233-9.868-2.234-9.911a1.187 1.187 0 0 0-2.373.052c.004.19.125 4.73 2.355 10.614 2.057 5.426 6.381 13.06 15.298 18.609a1.185 1.185 0 0 0 1.254 0c8.916-5.55 13.24-13.183 15.298-18.61 2.23-5.883 2.35-10.423 2.355-10.614a1.185 1.185 0 0 0-.796-1.146z"/>
    <path fill="#C379FD" d="M70.434 49.424a1.186 1.186 0 0 0-1.677 0L61.42 56.76l-4.363-4.363a1.186 1.186 0 1 0-1.678 1.678l5.202 5.202a1.182 1.182 0 0 0 1.678 0l8.175-8.175a1.186 1.186 0 0 0 0-1.678zM60.697 20.26H40.438a2.455 2.455 0 0 0-2.453 2.452v3.8c0 1.352 1.1 2.452 2.453 2.452h20.259c1.352 0 2.453-1.1 2.453-2.453v-3.799c0-1.352-1.1-2.452-2.453-2.452zm.08 6.251a.08.08 0 0 1-.08.08H40.438a.08.08 0 0 1-.08-.08v-3.799a.08.08 0 0 1 .08-.08h20.259a.08.08 0 0 1 .08.08v3.8zM55.633 31.656H40.438a1.187 1.187 0 0 0 0 2.373h15.195a1.187 1.187 0 0 0 0-2.373zM49.302 36.72h-8.864a1.187 1.187 0 0 0 0 2.374h8.864a1.187 1.187 0 1 0 0-2.373z"/>
</svg>
