<svg xmlns="http://www.w3.org/2000/svg" width="83" height="83" fill="none" viewBox="0 0 83 83">
    <path fill="#C379FD" d="M74.722 43.525a6.781 6.781 0 0 0 1.162-3.804v-1.3a6.83 6.83 0 0 0-6.822-6.822 6.8 6.8 0 0 0-4.813 1.993c-3.195-9.5-12.185-16.363-22.749-16.363-10.564 0-19.554 6.862-22.748 16.363a6.8 6.8 0 0 0-4.814-1.993 6.83 6.83 0 0 0-6.822 6.822v1.3c0 1.408.429 2.717 1.162 3.804C3.556 44.52 0 48.718 0 53.732v3.264c0 .895.726 1.62 1.621 1.62h8.43a1.621 1.621 0 0 0 0-3.241H3.242v-1.643c0-3.964 3.225-7.19 7.19-7.19h7.672a23.858 23.858 0 0 0 3.184 7.593L2.79 72.63a6.082 6.082 0 0 0 0 8.591A6.055 6.055 0 0 0 7.087 83a6.057 6.057 0 0 0 4.296-1.776L21.58 71.024a1.622 1.622 0 0 0-2.293-2.293L9.09 78.93a2.837 2.837 0 0 1-4.006 0 2.836 2.836 0 0 1 0-4.007L23.24 56.766c4.404 5.165 10.955 8.447 18.259 8.447 11.4 0 20.969-7.994 23.396-18.67h7.673c3.964 0 7.189 3.225 7.189 7.189v1.643H64.519a1.621 1.621 0 0 0 0 3.242h16.86c.895 0 1.621-.726 1.621-1.621v-3.264c0-5.014-3.556-9.212-8.278-10.207zm-57.204-3.804a3.583 3.583 0 0 1-3.58 3.58 3.583 3.583 0 0 1-3.58-3.58v-1.3a3.584 3.584 0 0 1 3.58-3.58 3.584 3.584 0 0 1 3.58 3.58v1.3zM41.5 61.971c-11.442 0-20.75-9.309-20.75-20.75 0-11.442 9.308-20.75 20.75-20.75 11.441 0 20.75 9.308 20.75 20.75 0 11.441-9.309 20.75-20.75 20.75zm31.141-22.25a3.583 3.583 0 0 1-3.58 3.58 3.583 3.583 0 0 1-3.579-3.58v-1.3a3.584 3.584 0 0 1 3.58-3.58 3.584 3.584 0 0 1 3.58 3.58v1.3z"/>
    <path fill="#C379FD" d="M41.5 23.713c-9.654 0-17.508 7.854-17.508 17.508 0 5.01 2.117 9.536 5.502 12.73.058.063.12.122.188.175A17.44 17.44 0 0 0 41.5 58.728a17.44 17.44 0 0 0 11.818-4.602c.068-.053.13-.112.188-.175 3.385-3.194 5.502-7.72 5.502-12.73 0-9.654-7.854-17.508-17.508-17.508zm0 31.773c-3.334 0-6.403-1.15-8.834-3.072a9.94 9.94 0 0 1 8.834-5.31 9.94 9.94 0 0 1 8.834 5.31 14.195 14.195 0 0 1-8.834 3.072zm-3.416-15.04v-1.26A3.42 3.42 0 0 1 41.5 35.77a3.42 3.42 0 0 1 3.416 3.416v1.26a3.42 3.42 0 0 1-3.416 3.416 3.42 3.42 0 0 1-3.416-3.416zm14.622 9.593a13.13 13.13 0 0 0-6.203-5.207 6.63 6.63 0 0 0 1.655-4.386v-1.26a6.666 6.666 0 0 0-6.658-6.658 6.666 6.666 0 0 0-6.658 6.659v1.259c0 1.68.626 3.214 1.655 4.386a13.132 13.132 0 0 0-6.203 5.207 14.195 14.195 0 0 1-3.06-8.818c0-7.866 6.4-14.266 14.266-14.266s14.266 6.4 14.266 14.266c0 3.326-1.145 6.39-3.06 8.818zM25.917 64.397a1.633 1.633 0 0 0-1.147-.475c-.426 0-.844.173-1.146.475-.301.301-.475.72-.475 1.146 0 .426.174.845.475 1.146.302.301.72.475 1.146.475.427 0 .845-.173 1.147-.475.301-.301.475-.72.475-1.146 0-.426-.174-.845-.475-1.146zM41.533 0c-.895 0-1.621.726-1.621 1.621v5.516a1.621 1.621 0 0 0 3.242 0V1.62C43.154.726 42.428 0 41.533 0zM42.678 11.336a1.63 1.63 0 0 0-1.146-.475c-.426 0-.844.174-1.146.475-.301.302-.475.72-.475 1.146 0 .427.173.845.475 1.146.302.302.72.476 1.146.476a1.63 1.63 0 0 0 1.146-.476c.302-.301.475-.72.475-1.146 0-.426-.173-.844-.475-1.146zM55.276 6.361a1.622 1.622 0 0 0-2.292 0l-2.85 2.85a1.621 1.621 0 0 0 2.293 2.292l2.85-2.849a1.621 1.621 0 0 0 0-2.293zM32.893 9.228l-2.877-2.876a1.622 1.622 0 0 0-2.292 2.292l2.877 2.877a1.617 1.617 0 0 0 2.292 0 1.621 1.621 0 0 0 0-2.293z"/>
</svg>
