<svg xmlns="http://www.w3.org/2000/svg" width="79" height="79" fill="none" viewBox="0 0 79 79">
    <path fill="#C379FD" d="M68.145 57.934c.418-2.22.407-4.5-.032-6.715l6.03-14.553v-.03a24.727 24.727 0 0 1 4.234-7.35c.453-.478.636-1.154.485-1.796L76.39 16.812a1.29 1.29 0 0 0-.132-.32c-.01-.019-.014-.043-.025-.06-.01-.02-.057-.064-.083-.098a1.323 1.323 0 0 0-.186-.218 1.209 1.209 0 0 0-.143-.087 1.334 1.334 0 0 0-.204-.123 1.296 1.296 0 0 0-.308-.075c-.03 0-.057-.02-.087-.023a1.317 1.317 0 0 0-.726.162c-.02.01-.043.015-.063.027h-.013l-9.297 5.802a1.965 1.965 0 0 0-.93 1.62 24.714 24.714 0 0 1-2.213 8.206v.015l-3.014 7.285a17.658 17.658 0 0 0-4.703-1.699c.621-4.285.85-8.619.682-12.946a14.37 14.37 0 0 0 3.268-10.55C57.39 6.058 50.455.516 50.16.283a1.317 1.317 0 0 0-2.087 1.374c.678 2.546.091 5.233-4.917 10.76a7.705 7.705 0 0 0-1.806 8.396 10.22 10.22 0 0 0 1.875 3.028 92.267 92.267 0 0 0-.74 5.837 65.95 65.95 0 0 0-.23 9.337 17.91 17.91 0 0 0-3.278 2.285L32.59 13.99c0-.027-.027-.047-.035-.072a1.247 1.247 0 0 0-.092-.254L25.941 1.619a3.04 3.04 0 0 0-5.712 1.337l-.495 13.687c0 .099.011.197.033.294v.059L26.282 44.8a14.827 14.827 0 0 0-3.044.454L16.07 27.947a2.661 2.661 0 0 0-3.437-1.408L1.681 31.074a2.641 2.641 0 0 0-1.426 3.44l9.72 23.447A10.527 10.527 0 0 0 10.517 79H68.45a10.534 10.534 0 0 0-.305-21.066zm-1.342-34.08l5.52-3.445-1.954 4.719a1.317 1.317 0 0 0 2.433 1.008l1.954-4.719 1.463 6.337a26.045 26.045 0 0 0-3.819 6.303 5.415 5.415 0 0 1-7.36-3.044 26.01 26.01 0 0 0 1.763-7.16zM63.775 34.19a8.02 8.02 0 0 0 3.282 2.39 8.354 8.354 0 0 0 3.222.68c.267-.002.533-.018.798-.05L66.876 47.35a17.87 17.87 0 0 0-5.654-6.99l2.553-6.169zm-18.038-9.403l6.614.404c.041 1.23.027 2.501-.014 3.793a27.68 27.68 0 0 1-6.597-.319c-.165-.023-.327-.042-.492-.064.132-1.24.292-2.496.486-3.814h.003zm-.629-10.603c3.496-3.857 5.308-6.823 5.73-9.612a17.608 17.608 0 0 1 4.751 9.438 11.797 11.797 0 0 1-2.665 8.574c-2.6-.158-5.173-.316-7.717-.474a5.492 5.492 0 0 1-.101-7.926h.002zm-.1 17.041l.382.05a37.51 37.51 0 0 0 5.126.436c.545 0 1.12-.044 1.695-.088a82.817 82.817 0 0 1-.565 5.293c-.325-.017-.644-.05-.97-.05-1.989.005-3.961.344-5.836 1.005a63.562 63.562 0 0 1 .166-6.646h.002zM34.825 46.622l-3.767-16.046a1.317 1.317 0 0 0-2.563.6l3.385 14.443a14.912 14.912 0 0 0-2.87-.715l-5.78-24.661a6.24 6.24 0 0 0 2.579.56c.083 0 .17-.011.255-.015l.931 3.975a1.317 1.317 0 1 0 2.564-.6l-.933-3.978a6.237 6.237 0 0 0 2.3-1.751l5.875 25.12a17.668 17.668 0 0 0-1.976 3.068zM26.78 18.051a4.371 4.371 0 0 1-4.396-1.76l.167-4.638c.458.085.923.13 1.39.132.45.002.898-.049 1.337-.15a6.707 6.707 0 0 0 2.441-1.213l2.217 4.092a4.367 4.367 0 0 1-3.156 3.54v-.003zM23.173 2.669a.41.41 0 0 1 .453.203l2.823 5.22c-.51.461-1.117.8-1.778.988a4.477 4.477 0 0 1-2.029-.096l.215-5.933a.408.408 0 0 1 .316-.382zm-9.529 26.298l1.006 2.43-4.871 2.018a1.317 1.317 0 0 0 1.01 2.43l4.873-2.018 1.007 2.433-2.437 1.01a1.317 1.317 0 1 0 1.008 2.433l2.437-1.01 1.008 2.433-4.876 2.021a1.317 1.317 0 1 0 1.009 2.434l4.871-2.018 1.065 2.572a15.285 15.285 0 0 0-8.525 10.377l-9.543-23.01 10.958-4.535zm54.806 47.4H10.517a7.9 7.9 0 1 1 2.253-15.474 1.317 1.317 0 0 0 1.697-1.236 12.508 12.508 0 0 1 20.013-9.755 1.316 1.316 0 0 0 2.019-.593 15.142 15.142 0 0 1 29.318 5.333 15.002 15.002 0 0 1-.665 4.442 1.317 1.317 0 0 0 1.54 1.675 8.22 8.22 0 0 1 1.758-.192 7.9 7.9 0 1 1 0 15.8z"/>
    <path fill="#C379FD" d="M50.918 20.672c.414.002.804-.19 1.054-.52a9.875 9.875 0 0 0 1.75-7.752 1.317 1.317 0 1 0-2.543.678 7.314 7.314 0 0 1-1.306 5.485 1.317 1.317 0 0 0 1.053 2.107l-.008.002zM49.187 60.567a6.471 6.471 0 0 0-2.824.658 7.9 7.9 0 0 0-13.647 7.756 1.317 1.317 0 0 0 2.423-1.033 5.362 5.362 0 0 1-.435-2.114 5.267 5.267 0 0 1 5.267-5.267 5.214 5.214 0 0 1 4.76 3.028c.028.043.059.084.092.124.02.045.044.09.07.132.023.029.057.042.084.07.062.064.13.121.204.17.066.051.136.096.21.132.077.032.156.057.238.074.08.021.163.034.247.038.171-.001.34-.03.503-.084a.977.977 0 0 0 .104-.025 1.19 1.19 0 0 0 .123-.09c.047-.022.093-.046.138-.072a3.883 3.883 0 0 1 2.443-.864 3.95 3.95 0 0 1 3.582 2.298 1.317 1.317 0 0 0 2.396-1.093 6.583 6.583 0 0 0-5.978-3.838zM23.267 51.416c-.198.064-4.85 1.673-4.85 6.516a1.317 1.317 0 1 0 2.633 0 4.527 4.527 0 0 1 3.058-4.02 1.32 1.32 0 1 0-.84-2.502v.006zM41.797 49.993a1.317 1.317 0 0 0 1.596-.957 5.616 5.616 0 0 1 5.313-4.27 1.317 1.317 0 0 0-.006-2.633 8.201 8.201 0 0 0-7.86 6.263c-.177.705.251 1.42.956 1.597z"/>
</svg>
