<svg xmlns="http://www.w3.org/2000/svg" width="70" height="70" fill="none" viewBox="0 0 70 70">
    <path fill="#C379FD" d="M69.216 62.946l-9.775-8.69a2.333 2.333 0 0 0-1.551-.59H12.11c-.571 0-1.122.21-1.55.59l-9.776 8.69A2.332 2.332 0 0 0 0 64.69v2.976a2.333 2.333 0 0 0 2.333 2.333h65.334A2.333 2.333 0 0 0 70 67.666V64.69a2.334 2.334 0 0 0-.784-1.744zm-3.451.053H12.15l7-7h38.74l7.875 7zM12.11 56h3.74l-7 7H4.235l7.875-7zM2.333 67.666v-2.333h65.334v2.333H2.333zM14 44.333h15.71l4.316 6.481a1.167 1.167 0 0 0 1.941 0l4.324-6.48H56a3.5 3.5 0 0 0 3.5-3.5V3.5A3.5 3.5 0 0 0 56 0H14a3.5 3.5 0 0 0-3.5 3.5v37.333a3.5 3.5 0 0 0 3.5 3.5zM39.667 42a1.166 1.166 0 0 0-.971.52L35 48.066l-3.696-5.544a1.166 1.166 0 0 0-.97-.523h-8.061a5.833 5.833 0 0 1 3.359-4.282l5.016-2.23a4.647 4.647 0 0 0 8.699 0l5.017 2.231A5.833 5.833 0 0 1 47.727 42h-8.06zm4.666-23.333a2.333 2.333 0 1 1 0 4.666v-4.666zm-.3 6.972c.1.006.2.028.3.028.395-.005.787-.06 1.167-.166v1.332h-1.854c.156-.389.285-.788.387-1.194zm.3-9.306c-.1 0-.2.023-.3.028a9.32 9.32 0 0 0-18.067 0c-.1-.006-.199-.028-.3-.028a4.6 4.6 0 0 0-1.117.15 10.5 10.5 0 0 1 20.9 0 4.636 4.636 0 0 0-1.116-.15zM41.895 17.5h-.583l-1.992-1.992a1.167 1.167 0 0 0-1.346-.219L33.558 17.5h-5.453a6.992 6.992 0 0 1 13.79 0zm-16.228 1.167v4.666a2.333 2.333 0 1 1 0-4.666zM28 19.833h5.833c.181 0 .36-.041.522-.122l3.912-1.958 1.738 1.738a1.165 1.165 0 0 0 .828.342H42v3.5c0 1.23-.328 2.438-.947 3.5H35v2.334h3.862A6.995 6.995 0 0 1 28 23.333v-3.5zm4.667 12.527c1.528.409 3.138.409 4.666 0v1.473a2.333 2.333 0 1 1-4.666 0V32.36zM12.833 3.5A1.167 1.167 0 0 1 14 2.333h42A1.167 1.167 0 0 1 57.167 3.5v37.333A1.167 1.167 0 0 1 56 42h-5.91a8.167 8.167 0 0 0-4.773-6.417l-5.65-2.508v-1.67a9.4 9.4 0 0 0 2.607-2.238H45.5a2.334 2.334 0 0 0 2.333-2.334v-2.779a4.581 4.581 0 0 0 0-6.108V17.5a12.833 12.833 0 1 0-25.666 0v.446a4.643 4.643 0 0 0 3.5 7.72c.1 0 .2-.021.3-.027a9.36 9.36 0 0 0 4.366 5.765v1.671l-5.65 2.508A8.175 8.175 0 0 0 19.91 42H14a1.167 1.167 0 0 1-1.167-1.167V3.5z"/>
    <path fill="#C379FD" d="M30.334 21h2.333v2.333h-2.334V21zM37.334 21h2.333v2.333h-2.334V21zM33.834 58.332h2.333v2.333h-2.334v-2.333zM38.5 58.332h2.333v2.333H38.5v-2.333zM29.167 58.332H31.5v2.333h-2.333v-2.333z"/>
</svg>
