<svg xmlns="http://www.w3.org/2000/svg" width="89" height="89" fill="none" viewBox="0 0 89 89">
    <path fill="#C379FD" d="M87.696 43.196H66.705V40.23h5.663a1.304 1.304 0 0 0 0-2.607h-5.663v-2.967h3.932c1.465 0 2.842-.57 3.878-1.606l8.574-8.574a4.072 4.072 0 0 0 1.82.426c1.093 0 2.12-.425 2.893-1.198A4.064 4.064 0 0 0 89 20.812c0-1.093-.425-2.12-1.198-2.893a4.063 4.063 0 0 0-2.893-1.198c-1.092 0-2.12.425-2.892 1.198a4.064 4.064 0 0 0-1.198 2.892c0 .643.148 1.262.426 1.821l-8.574 8.574a2.858 2.858 0 0 1-2.034.843h-3.932v-2.877a6.885 6.885 0 0 0-6.878-6.877h-2.876V10.754a4.097 4.097 0 0 0 2.787-3.877 4.095 4.095 0 0 0-4.09-4.09 4.095 4.095 0 0 0-4.091 4.09c0 1.8 1.168 3.33 2.786 3.877v11.54h-2.966v-5.663a1.304 1.304 0 0 0-2.607 0v5.664h-2.967V1.304a1.304 1.304 0 0 0-2.607 0v20.99H40.23v-5.663a1.304 1.304 0 0 0-2.607 0v5.664h-2.967v-3.932c0-1.465-.57-2.842-1.606-3.878l-8.577-8.577a4.095 4.095 0 0 0-.769-4.71 4.096 4.096 0 0 0-5.785 0 4.095 4.095 0 0 0 0 5.785 4.078 4.078 0 0 0 2.893 1.196c.623 0 1.246-.145 1.817-.427l8.577 8.577c.544.543.843 1.266.843 2.034v3.932h-2.877c-.581 0-1.16.073-1.718.216a1.304 1.304 0 0 0 .65 2.526c.346-.09.706-.135 1.068-.135h30.655a4.275 4.275 0 0 1 4.27 4.27v30.655c0 .363-.045.722-.134 1.068a1.304 1.304 0 1 0 2.525.65 6.898 6.898 0 0 0 .217-1.718v-2.876h11.54a4.097 4.097 0 0 0 3.877 2.787 4.095 4.095 0 0 0 4.09-4.09 4.095 4.095 0 0 0-4.09-4.091c-1.8 0-3.33 1.168-3.876 2.786H66.705v-2.966h5.663a1.304 1.304 0 0 0 0-2.607h-5.663v-2.966h20.99a1.304 1.304 0 0 0 0-2.608zM83.86 19.763c.28-.28.653-.434 1.05-.434.395 0 .768.154 1.048.434s.434.652.434 1.049c0 .396-.154.768-.434 1.048s-.653.435-1.049.435c-.396 0-.768-.154-1.049-.435a1.473 1.473 0 0 1-.434-1.048c0-.396.154-.769.434-1.049zm-62-14.623a1.485 1.485 0 0 1-2.097 0 1.485 1.485 0 0 1 1.049-2.532A1.485 1.485 0 0 1 21.86 5.14zm33.787 3.22a1.485 1.485 0 0 1-1.483-1.483c0-.817.665-1.483 1.483-1.483.818 0 1.483.666 1.483 1.483 0 .818-.665 1.483-1.483 1.483zm26.475 45.804c.818 0 1.483.666 1.483 1.483 0 .818-.665 1.483-1.483 1.483a1.485 1.485 0 0 1-1.483-1.483c0-.818.666-1.483 1.483-1.483zM71.08 82.016a4.095 4.095 0 0 0-4.71-.768l-8.577-8.578a2.857 2.857 0 0 1-.842-2.034v-3.931h2.876c.582 0 1.16-.073 1.719-.217a1.304 1.304 0 0 0-.65-2.525c-.347.089-.706.134-1.069.134H29.172a4.275 4.275 0 0 1-4.27-4.27V29.172c0-.362.046-.722.135-1.068a1.304 1.304 0 0 0-2.525-.65 6.894 6.894 0 0 0-.217 1.718v2.876H10.754a4.097 4.097 0 0 0-3.877-2.786 4.095 4.095 0 0 0-4.09 4.09 4.095 4.095 0 0 0 4.09 4.09c1.8 0 3.33-1.168 3.877-2.786h11.54v2.966h-5.663a1.304 1.304 0 0 0 0 2.608h5.664v2.966H1.304a1.304 1.304 0 0 0 0 2.607h20.99v2.967h-5.663a1.304 1.304 0 0 0 0 2.607h5.664v2.966h-3.932c-1.465 0-2.842.57-3.878 1.606l-8.574 8.575a4.072 4.072 0 0 0-1.82-.427c-1.093 0-2.12.426-2.893 1.198A4.065 4.065 0 0 0 0 68.188c0 1.092.426 2.12 1.198 2.892a4.063 4.063 0 0 0 2.893 1.198c1.092 0 2.12-.425 2.892-1.198a4.064 4.064 0 0 0 1.198-2.892c0-.643-.148-1.262-.426-1.82l8.574-8.575a2.858 2.858 0 0 1 2.034-.842h3.932v2.876a6.885 6.885 0 0 0 6.878 6.877h2.876v11.542a4.097 4.097 0 0 0-2.787 3.876 4.095 4.095 0 0 0 4.09 4.09 4.095 4.095 0 0 0 4.091-4.09c0-1.8-1.168-3.33-2.786-3.876V66.704h2.966v5.664a1.304 1.304 0 0 0 2.607 0v-5.664h2.966v20.992a1.304 1.304 0 0 0 2.608 0V66.705h2.966v5.663a1.304 1.304 0 0 0 2.607 0v-5.663h2.966v3.931c0 1.465.57 2.843 1.607 3.878l8.577 8.578a4.095 4.095 0 0 0 .769 4.71 4.078 4.078 0 0 0 2.892 1.195 4.077 4.077 0 0 0 2.892-1.196 4.095 4.095 0 0 0 0-5.785zM6.877 34.836a1.485 1.485 0 0 1-1.483-1.484c0-.818.666-1.483 1.483-1.483.818 0 1.483.666 1.483 1.483 0 .818-.665 1.483-1.483 1.483zm-1.738 34.4c-.28.28-.652.435-1.048.435-.397 0-.769-.154-1.05-.434a1.473 1.473 0 0 1-.434-1.05c0-.395.155-.768.435-1.048s.652-.434 1.049-.434c.396 0 .768.154 1.048.434s.435.653.435 1.049c0 .396-.155.769-.435 1.049zm29.697 12.886c0 .818-.666 1.483-1.483 1.483a1.485 1.485 0 0 1-1.484-1.483c0-.817.666-1.483 1.483-1.483.818 0 1.484.666 1.484 1.483zm34.4 3.836a1.485 1.485 0 0 1-2.097 0 1.485 1.485 0 0 1 1.05-2.531c.379 0 .759.144 1.048.433.578.578.578 1.52 0 2.098z"/>
    <path fill="#C379FD" d="M58.344 41.016c0-2.788-2.039-5.15-4.83-5.917a4.45 4.45 0 0 0 .128-1.05c0-2.64-2.343-4.787-5.223-4.787-1.56 0-2.961.63-3.919 1.628-.958-.997-2.36-1.628-3.919-1.628-2.88 0-5.223 2.147-5.223 4.787 0 .358.046.709.129 1.05-2.792.767-4.831 3.129-4.831 5.917 0 1.363.482 2.649 1.373 3.71-.871 1.128-1.373 2.497-1.373 3.954 0 2.217 1.184 4.287 3.135 5.57v.004c0 3.024 2.694 5.484 6.006 5.484 1.904 0 3.602-.814 4.703-2.079 1.101 1.265 2.8 2.079 4.703 2.079 3.187 0 5.801-2.28 5.994-5.146 1.936-1.123 3.147-3.09 3.147-5.215 0-1.563-.666-3.054-1.813-4.18 1.147-1.127 1.813-2.618 1.813-4.18zM53.73 46.35c1.257.663 2.007 1.795 2.007 3.028 0 .919-.428 1.795-1.149 2.45-.685-1.268-1.897-2.279-3.427-2.76a1.304 1.304 0 0 0-.782 2.488c1.33.418 2.222 1.502 2.222 2.699 0 1.586-1.524 2.877-3.399 2.877-1.874 0-3.399-1.291-3.399-2.877v-8.36c0-1.587 1.525-2.877 3.4-2.877a1.304 1.304 0 0 0 0-2.608c-1.262 0-2.433.358-3.4.966V39.71a1.304 1.304 0 0 0-2.607 0v7.238a6.209 6.209 0 0 0-1.44-.667 1.304 1.304 0 1 0-.782 2.487c1.329.418 2.222 1.502 2.222 2.699v2.787c0 1.586-1.525 2.876-3.4 2.876-1.874 0-3.398-1.29-3.398-2.876 0-.68.288-1.341.81-1.861a1.304 1.304 0 0 0-1.837-1.85 5.55 5.55 0 0 0-.805 1.011c-.823-.779-1.304-1.803-1.304-2.874 0-1.932 1.516-3.629 3.687-4.127a1.304 1.304 0 0 0-.583-2.541 7.94 7.94 0 0 0-2.392.974c-.463-.58-.712-1.261-.712-1.97 0-1.961 1.86-3.557 4.151-3.572l.035.001a1.303 1.303 0 0 0 1.106-1.99l-.029-.047-.017-.023a1.364 1.364 0 0 0-.064-.083c0-.001 0-.002-.002-.003a1.935 1.935 0 0 1-.477-1.25c0-1.202 1.174-2.18 2.616-2.18 1.441 0 2.615.978 2.615 2.18a1.304 1.304 0 0 0 2.607 0c0-1.202 1.174-2.18 2.616-2.18 1.441 0 2.615.978 2.615 2.18 0 .321-.084.595-.196.82-.741.07-1.459.25-2.14.537a1.304 1.304 0 0 0 1.014 2.403 4.708 4.708 0 0 1 1.802-.365l.037.001.035-.002c2.292.015 4.15 1.612 4.15 3.573 0 1.233-.75 2.364-2.006 3.027a1.304 1.304 0 0 0 0 2.306z"/>
</svg>
