<svg xmlns="http://www.w3.org/2000/svg" width="73" height="62" fill="none" viewBox="0 0 73 62">
    <path fill="#C379FD" d="M26.334 23.82a4.367 4.367 0 0 0-4.362 4.362 4.367 4.367 0 0 0 4.362 4.362 4.367 4.367 0 0 0 4.362-4.362 4.367 4.367 0 0 0-4.362-4.362zm0 6.585a2.226 2.226 0 0 1-2.223-2.223c0-1.226.997-2.223 2.223-2.223s2.223.997 2.223 2.223a2.226 2.226 0 0 1-2.223 2.223zM37.706 23.82a4.367 4.367 0 0 0-4.362 4.362 4.367 4.367 0 0 0 4.362 4.362 4.367 4.367 0 0 0 4.362-4.362 4.367 4.367 0 0 0-4.362-4.362zm0 6.585a2.226 2.226 0 0 1-2.223-2.223c0-1.226.997-2.223 2.223-2.223s2.223.997 2.223 2.223a2.226 2.226 0 0 1-2.223 2.223zM49.078 23.82a4.367 4.367 0 0 0-4.362 4.362 4.367 4.367 0 0 0 4.362 4.362 4.367 4.367 0 0 0 4.362-4.362 4.367 4.367 0 0 0-4.362-4.362zm0 6.585a2.226 2.226 0 0 1-2.223-2.223c0-1.226.997-2.223 2.223-2.223 1.225 0 2.223.997 2.223 2.223a2.226 2.226 0 0 1-2.223 2.223zM26.334 34.459a4.367 4.367 0 0 0-4.362 4.362 4.367 4.367 0 0 0 4.362 4.362 4.367 4.367 0 0 0 4.362-4.362 4.367 4.367 0 0 0-4.362-4.362zm0 6.585a2.226 2.226 0 0 1-2.223-2.223c0-1.226.997-2.223 2.223-2.223s2.223.997 2.223 2.223a2.226 2.226 0 0 1-2.223 2.223zM49.078 34.459a4.367 4.367 0 0 0-4.362 4.362 4.367 4.367 0 0 0 4.362 4.362 4.367 4.367 0 0 0 4.362-4.362 4.367 4.367 0 0 0-4.362-4.362zm0 6.585a2.226 2.226 0 0 1-2.223-2.223c0-1.226.997-2.223 2.223-2.223 1.225 0 2.223.997 2.223 2.223a2.226 2.226 0 0 1-2.223 2.223zM37.706 34.459a4.367 4.367 0 0 0-4.362 4.362 4.367 4.367 0 0 0 4.362 4.362 4.367 4.367 0 0 0 4.362-4.362 4.367 4.367 0 0 0-4.362-4.362zm0 6.585a2.226 2.226 0 0 1-2.223-2.223c0-1.226.997-2.223 2.223-2.223s2.223.997 2.223 2.223a2.226 2.226 0 0 1-2.223 2.223zM37.706 45.1a4.367 4.367 0 0 0-4.362 4.362 4.367 4.367 0 0 0 4.362 4.361 4.367 4.367 0 0 0 4.361-4.361 4.367 4.367 0 0 0-4.361-4.362zm0 6.585a2.226 2.226 0 0 1-2.224-2.224c0-1.225.998-2.223 2.224-2.223 1.225 0 2.223.998 2.223 2.224a2.226 2.226 0 0 1-2.223 2.223zM26.334 45.1a4.367 4.367 0 0 0-4.362 4.362 4.367 4.367 0 0 0 4.362 4.361 4.367 4.367 0 0 0 4.362-4.361 4.367 4.367 0 0 0-4.362-4.362zm0 6.585a2.226 2.226 0 0 1-2.223-2.224c0-1.225.997-2.223 2.223-2.223s2.223.998 2.223 2.224a2.226 2.226 0 0 1-2.223 2.223zM16.475 28.18l1.572-1.571a1.07 1.07 0 1 0-1.513-1.513l-1.572 1.572-1.572-1.572a1.07 1.07 0 0 0-1.512 1.513l1.572 1.572-1.572 1.572a1.069 1.069 0 1 0 1.512 1.512l1.572-1.572 1.572 1.572a1.066 1.066 0 0 0 1.512 0 1.07 1.07 0 0 0 0-1.512l-1.571-1.572zM16.475 38.821l1.572-1.572a1.07 1.07 0 1 0-1.513-1.512l-1.572 1.572-1.572-1.572a1.07 1.07 0 0 0-1.512 1.512l1.572 1.572-1.572 1.572a1.069 1.069 0 1 0 1.512 1.513l1.572-1.572 1.572 1.572a1.066 1.066 0 0 0 1.512 0 1.07 1.07 0 0 0 0-1.513l-1.571-1.572zM18.047 51.034l-1.572-1.572 1.572-1.572a1.07 1.07 0 0 0-1.513-1.512l-1.572 1.572-1.572-1.572a1.07 1.07 0 0 0-1.512 1.512l1.572 1.572-1.572 1.572a1.07 1.07 0 0 0 1.512 1.512l1.572-1.572 1.572 1.572a1.066 1.066 0 0 0 1.513 0 1.07 1.07 0 0 0 0-1.512z"/>
    <path fill="#C379FD" d="M72.939 54.215l-2.917-15.348a1.07 1.07 0 0 0-2.101.4l2.916 15.347c.163.86-.562 1.67-1.55 1.67H53.462L63.727 46.02c.187-.188.313-.462.313-.756V18.842l2.932 15.434a1.07 1.07 0 0 0 2.102-.4L64.033 7.348a2.98 2.98 0 0 0-2.971-2.84H51.69V1.069a1.07 1.07 0 1 0-2.139 0v3.439H42.39V1.069a1.07 1.07 0 1 0-2.139 0v3.439h-7.162V1.069a1.07 1.07 0 1 0-2.139 0v3.439H23.79V1.069a1.07 1.07 0 1 0-2.139 0v3.439h-7.162V1.069a1.07 1.07 0 1 0-2.138 0v3.439H2.978A2.982 2.982 0 0 0 0 7.486v50.85a2.981 2.981 0 0 0 2.978 2.978h26.547a1.07 1.07 0 1 0 0-2.139H2.978a.84.84 0 0 1-.84-.839V18.392h59.763v25.802H49.898a2.981 2.981 0 0 0-2.978 2.978v12.003H34.515a1.07 1.07 0 1 0 0 2.139h13.474c.276 0 .553-.11.757-.313l2.577-2.578h17.964c2.323 0 4.067-2.022 3.652-4.208zm-70.8-37.961V7.486a.84.84 0 0 1 .839-.84h9.372v4.804a1.07 1.07 0 1 0 2.138 0V6.647h7.162v4.803a1.07 1.07 0 1 0 2.139 0V6.647h7.161v4.803a1.07 1.07 0 1 0 2.14 0V6.647h7.161v4.803a1.07 1.07 0 1 0 2.139 0V6.647h7.161v4.803a1.07 1.07 0 1 0 2.139 0V6.647h9.372a.84.84 0 0 1 .839.839v8.768H2.139zm46.92 41.409v-10.49a.84.84 0 0 1 .839-.84h10.49l-11.33 11.33z"/>
</svg>
