<svg xmlns="http://www.w3.org/2000/svg" width="94" height="93" fill="none" viewBox="0 0 94 93">
    <path fill="#C379FD" d="M92.669 84.318l-12.49-39.904c1.378-.771 2.322-2.226 2.322-3.914a4.503 4.503 0 0 0-2.678-4.106l3.775-15.104c.267-1.064.403-2.159.403-3.258v-1.27c0-3.671-2.57-6.74-6-7.542V0h-3v9.103a7.714 7.714 0 0 0-5.968 4.777l-.033.084-.032-.085A7.715 7.715 0 0 0 63 9.104V0h-3v9.219c-3.43.803-6 3.87-6 7.541 0 1.938.238 3.876.71 5.76l3.467 13.874A4.502 4.502 0 0 0 55.5 40.5c0 1.688.944 3.143 2.322 3.913l-12.49 39.905c-.83 2.65-.083 5.507 1.951 7.456a4.43 4.43 0 0 0 3.075 1.221 4.423 4.423 0 0 0 3.069-1.218l.596-.57c.54-.52 1.45-.518 1.99-.002l.596.572c1.693 1.623 4.449 1.623 6.142 0l.594-.57c.54-.52 1.45-.518 1.991-.002l.596.572c1.693 1.623 4.447 1.623 6.14 0l.596-.572c.538-.516 1.45-.516 1.989 0l.595.572c1.692 1.626 4.448 1.623 6.141 0l.596-.57c.54-.52 1.45-.518 1.99-.002l.596.572c1.68 1.61 4.404 1.621 6.099.038l.045-.041c2.032-1.949 2.781-4.805 1.95-7.456zM60 42a1.501 1.501 0 0 1 0-3h18c.827 0 1.5.673 1.5 1.5 0 .829-.673 1.5-1.5 1.5H60zm-3-25.238A4.767 4.767 0 0 1 61.761 12a4.739 4.739 0 0 1 4.421 2.993l1.426 3.564a1.5 1.5 0 0 0 2.784 0l1.427-3.564A4.74 4.74 0 0 1 76.239 12 4.767 4.767 0 0 1 81 16.762v1.27c0 .854-.105 1.705-.311 2.532L76.829 36H61.172L57.62 21.794a20.762 20.762 0 0 1-.62-5.032zm-5.053 72.277l-.597.572c-.54.517-1.449.517-1.988 0l-.033-.032c-1.184-1.155-1.618-2.823-1.135-4.365L60.78 45h1.89l-8.585 42.928a4.382 4.382 0 0 0-2.138 1.11zm9.32 0l-.594.572c-.54.515-1.45.515-1.988 0l-.597-.574a4.292 4.292 0 0 0-1.025-.704L65.73 45h1.77v44.126l-.091-.087c-1.69-1.623-4.446-1.623-6.142 0zm18.049.572c-.538.518-1.447.515-1.988 0l-.597-.574c-1.693-1.62-4.447-1.62-6.139.002l-.092.087V45h1.77l8.668 43.334c-.367.188-.718.411-1.025.707l-.597.57zm9.357-.032l-.035.032c-.54.514-1.45.514-1.987 0l-.597-.574a4.365 4.365 0 0 0-2.138-1.11L75.33 45h1.89l12.587 40.216c.481 1.54.048 3.208-1.134 4.363zM50.682 36.923c.284-.363.386-.839.273-1.285l-6-24a1.497 1.497 0 0 0-.864-1.016l-9.59-4.11V1.5A1.5 1.5 0 0 0 33 0H18a1.5 1.5 0 0 0-1.5 1.5v5.012l-9.591 4.11a1.5 1.5 0 0 0-.864 1.015l-6 24A1.499 1.499 0 0 0 1.5 37.5H9c.661 0 1.247-.435 1.437-1.07l2.118-7.058.95 14.227C13.554 44.39 14.21 45 15 45h21a1.5 1.5 0 0 0 1.497-1.4l.95-14.228 2.118 7.059c.189.634.774 1.07 1.435 1.07h7.5c.462 0 .899-.214 1.182-.578zM25.5 24.04L20.128 9h10.744L25.5 24.04zM19.5 3h12v3h-12V3zM7.884 34.5H3.42l5.354-21.414.805-.343 2.357 8.248-4.053 13.51zm7.113-13.599a1.466 1.466 0 0 0-.054-.312l-2.583-9.04 4.764-2.042L24 28.76V42h-7.596l-1.407-21.099zm19.6 21.1H27V28.76l6.876-19.254 4.764 2.042-2.583 9.039.02.006c-.028.1-.068.198-.074.306L34.596 42zm8.52-7.5L39.062 20.99l2.356-8.249.806.345L47.578 34.5h-4.462zM36 48H15a1.5 1.5 0 0 0-1.5 1.5v42c0 .83.672 1.5 1.5 1.5h6a1.5 1.5 0 0 0 1.482-1.266L25.5 72.618l3.018 19.116A1.501 1.501 0 0 0 30 93h6a1.5 1.5 0 0 0 1.5-1.5v-42A1.5 1.5 0 0 0 36 48zm-1.5 42h-3.219l-4.3-27.234a1.501 1.501 0 0 0-2.963 0L19.719 90H16.5V51h18v39z"/>
</svg>
