<svg xmlns="http://www.w3.org/2000/svg" width="92" height="92" fill="none" viewBox="0 0 92 92">
    <path fill="#C379FD" d="M27.765 26.188H19.14c-.993 0-1.797.804-1.797 1.796v10.063c0 .992.804 1.797 1.797 1.797h8.625c.992 0 1.796-.805 1.796-1.797V27.984c0-.992-.804-1.797-1.796-1.797zM25.968 36.25h-5.032v-6.469h5.032v6.469zM27.765 46.313H19.14c-.993 0-1.797.804-1.797 1.796v10.063c0 .992.804 1.797 1.797 1.797h8.625c.992 0 1.796-.805 1.796-1.797V48.109c0-.992-.804-1.797-1.796-1.797zm-1.797 10.062h-5.032v-6.469h5.032v6.469zM27.765 66.438H19.14c-.993 0-1.797.804-1.797 1.796v10.063c0 .992.804 1.797 1.797 1.797h8.625c.992 0 1.796-.805 1.796-1.797V68.234c0-.992-.804-1.796-1.796-1.796zM25.968 76.5h-5.032v-6.469h5.032V76.5zM74.66 66.438h-8.625c-.993 0-1.797.804-1.797 1.796v10.063c0 .992.804 1.797 1.797 1.797h8.625c.992 0 1.797-.805 1.797-1.797V68.234c0-.992-.805-1.796-1.797-1.796zM72.863 76.5h-5.031v-6.469h5.03V76.5zM43.397 26.188h-8.625c-.993 0-1.797.804-1.797 1.796v10.063c0 .992.804 1.797 1.797 1.797h8.625c.992 0 1.796-.805 1.796-1.797V27.984c0-.992-.804-1.797-1.796-1.797zM41.6 36.25h-5.032v-6.469H41.6v6.469zM59.028 26.188h-8.625c-.993 0-1.797.804-1.797 1.796v10.063c0 .992.804 1.797 1.797 1.797h8.625c.992 0 1.797-.805 1.797-1.797V27.984c0-.992-.805-1.797-1.797-1.797zM57.23 36.25H52.2v-6.469h5.031v6.469zM43.397 46.313h-8.625c-.993 0-1.797.804-1.797 1.796v10.063c0 .992.804 1.797 1.797 1.797h8.625c.992 0 1.796-.805 1.796-1.797V48.109c0-.992-.804-1.797-1.796-1.797zM41.6 56.374h-5.032v-6.469H41.6v6.469zM59.028 46.313h-8.625c-.993 0-1.797.804-1.797 1.796v10.063c0 .992.804 1.797 1.797 1.797h8.625c.992 0 1.797-.805 1.797-1.797V48.109c0-.992-.805-1.797-1.797-1.797zM57.23 56.374H52.2v-6.469h5.031v6.469zM74.66 26.188h-8.625c-.993 0-1.797.804-1.797 1.796v10.063c0 .992.804 1.797 1.797 1.797h8.625c.992 0 1.797-.805 1.797-1.797V27.984c0-.992-.805-1.797-1.797-1.797zM72.863 36.25h-5.031v-6.469h5.03v6.469zM74.66 46.313h-8.625c-.993 0-1.797.804-1.797 1.796v10.063c0 .992.804 1.797 1.797 1.797h8.625c.992 0 1.797-.805 1.797-1.797V48.109c0-.992-.805-1.797-1.797-1.797zm-1.797 10.062h-5.031v-6.469h5.03v6.469z"/>
    <path fill="#C379FD" d="M90.203 88.406h-6.74V18.7c0-.993-.805-1.797-1.797-1.797h-9.973v-6.48c0-.993-.805-1.797-1.797-1.797h-9.88V1.797C60.016.804 59.21 0 58.219 0H33.78c-.992 0-1.797.804-1.797 1.797v6.828h-9.88c-.992 0-1.797.804-1.797 1.797v6.48h-9.973c-.992 0-1.797.804-1.797 1.797v69.707h-6.74a1.797 1.797 0 1 0 0 3.594h88.406a1.797 1.797 0 0 0 0-3.594zM35.578 3.594h20.844v5.031H35.578V3.594zm17.969 84.812H41.114l12.433-12.433v12.433zm0-17.504a1.79 1.79 0 0 0-.117.106L38.453 85.985v-7.616L49.98 66.844h3.568v4.058zm-15.094 2.385v-6.443h6.443l-6.443 6.443zm41.416 15.12H57.141V66.843h.629a1.797 1.797 0 0 0 0-3.594H34.23a1.797 1.797 0 0 0 0 3.594h.63v21.562H12.13v-67.91h19.947a1.797 1.797 0 0 0 0-3.594h-8.176v-4.683h44.198v4.683H46.274a1.797 1.797 0 0 0 0 3.594h33.595v67.91z"/>
    <path fill="#C379FD" d="M40.354 17.427a1.81 1.81 0 0 0-1.27-.527 1.81 1.81 0 0 0-1.27.527 1.81 1.81 0 0 0-.527 1.27c0 .473.192.936.527 1.27.334.337.797.527 1.27.527s.936-.19 1.27-.526a1.81 1.81 0 0 0 .527-1.27 1.81 1.81 0 0 0-.527-1.271z"/>
</svg>
