<svg xmlns="http://www.w3.org/2000/svg" width="76" height="76" fill="none" viewBox="0 0 76 76">
    <path fill="#C379FD" d="M74.733 44.333h-3.885L68.4 8.78a1.268 1.268 0 0 0-1.267-1.18h-7.6c-.667-.001-1.22.515-1.267 1.18l-2.448 35.553H53.2v-7.6a1.267 1.267 0 0 0-2.058-.989L40.533 44.23v-7.497a1.267 1.267 0 0 0-2.058-.989L27.867 44.23v-7.497a1.267 1.267 0 0 0-2.058-.989L15.2 44.23v-7.497a1.268 1.268 0 0 0-1.92-1.085l-12.667 7.6c-.38.229-.614.64-.614 1.085v30.4C0 75.433.567 76 1.267 76h73.466c.7 0 1.267-.567 1.267-1.267V45.6c0-.7-.567-1.267-1.267-1.267zm-14.017-34.2h5.234l2.36 34.2h-9.953l2.359-34.2zm-17.65 63.333v-15.2h7.6v15.2h-7.6zm30.4 0H53.2V57c0-.7-.568-1.267-1.267-1.267H41.8c-.7 0-1.267.567-1.267 1.267v16.466h-38V45.05l10.133-6.08v7.896a1.268 1.268 0 0 0 2.06.99l10.607-8.487v7.497a1.267 1.267 0 0 0 2.059.99L38 39.37v7.497a1.267 1.267 0 0 0 2.058.99l10.608-8.487v6.23c0 .7.568 1.267 1.267 1.267h21.533v26.6zM43.058 2.534c.46.247.877.569 1.231.953a4.432 4.432 0 0 0 2.83 1.58 4.624 4.624 0 0 0 2.986-1.646c.32-.337.679-.634 1.069-.887.26.012.943.651 1.31.994a4.242 4.242 0 0 0 2.742 1.54 4.946 4.946 0 0 0 3.183-1.746c.31-.291.78-.733.87-.788.68 0 .837.226 1.255.829a3.203 3.203 0 0 0 2.8 1.704 1.267 1.267 0 0 0 0-2.533c-.254 0-.303-.017-.715-.612A3.743 3.743 0 0 0 59.28.001a4.067 4.067 0 0 0-2.606 1.474c-.42.397-1.126 1.06-1.393 1.065a5.16 5.16 0 0 1-1.067-.86A4.7 4.7 0 0 0 51.173 0a4.391 4.391 0 0 0-2.8 1.566 5.26 5.26 0 0 1-1.218.968 4.928 4.928 0 0 1-1.14-.9A4.595 4.595 0 0 0 43.067.002a1.267 1.267 0 0 0-.008 2.533z"/>
    <path fill="#C379FD" d="M13.934 58.268H8.867c-.7 0-1.267.567-1.267 1.266v7.6c0 .7.567 1.267 1.267 1.267h5.067c.699 0 1.266-.567 1.266-1.267v-7.6c0-.699-.567-1.266-1.266-1.266zm-1.268 7.6h-2.533v-5.066h2.534v5.066zM24.067 58.268H19c-.7 0-1.267.567-1.267 1.266v7.6c0 .7.567 1.267 1.267 1.267h5.067c.7 0 1.267-.567 1.267-1.267v-7.6c0-.699-.568-1.266-1.267-1.266zm-1.267 7.6h-2.533v-5.066H22.8v5.066zM34.2 58.268h-5.067c-.7 0-1.267.567-1.267 1.266v7.6c0 .7.567 1.267 1.267 1.267H34.2c.7 0 1.266-.567 1.266-1.267v-7.6c0-.699-.567-1.266-1.266-1.266zm-1.267 7.6H30.4v-5.066h2.533v5.066z"/>
</svg>
