<svg xmlns="http://www.w3.org/2000/svg" width="12" height="12" fill="none" viewBox="0 0 12 12">
    <path fill="#252C32" fill-rule="evenodd" d="M9.75 1.5V.75H9v.75H3V.75h-.75v.75H.75v7.875c0 .621.504 1.125 1.125 1.125h8.25c.621 0 1.125-.504 1.125-1.125V1.5h-1.5zm.75 7.875a.375.375 0 0 1-.375.375h-8.25a.375.375 0 0 1-.375-.375V2.25h.75v1.125H3V2.25h6v1.125h.75V2.25h.75v7.125zm-8.25-3H4.5v-2.25H2.25v2.25zm.75-1.5h.75v.75H3v-.75zm4.125 1.5h-2.25v-2.25h2.25v2.25zm-.75-1.5h-.75v.75h.75v-.75zm1.125 1.5h2.25v-2.25H7.5v2.25zm.75-1.5H9v.75h-.75v-.75zM4.5 9H2.25V6.75H4.5V9zm-.75-1.5H3v.75h.75V7.5zM4.875 9h2.25V6.75h-2.25V9zm.75-1.5h.75v.75h-.75V7.5z" clip-rule="evenodd" opacity=".5"/>
</svg>
