<svg xmlns="http://www.w3.org/2000/svg" width="64" height="64" fill="none" viewBox="0 0 64 64">
    <circle cx="32" cy="32" r="32" fill="#fff"/>
    <path fill="#5D43A0" d="M51 23.67a16.194 16.194 0 0 1-4.489 1.235 7.773 7.773 0 0 0 3.427-4.323 15.531 15.531 0 0 1-4.94 1.893A7.792 7.792 0 0 0 39.308 20c-4.313 0-7.785 3.515-7.785 7.824 0 .62.052 1.216.18 1.784-6.476-.317-12.207-3.434-16.057-8.182A7.842 7.842 0 0 0 18.04 31.88a7.67 7.67 0 0 1-3.52-.963v.086a7.85 7.85 0 0 0 6.242 7.685 7.745 7.745 0 0 1-2.043.258c-.499 0-1.002-.029-1.475-.134 1.01 3.098 3.874 5.375 7.28 5.45a15.614 15.614 0 0 1-9.66 3.335c-.639 0-1.251-.029-1.864-.107C16.45 49.724 20.54 51 24.951 51c14.335 0 22.173-11.923 22.173-22.258 0-.346-.012-.68-.029-1.011 1.547-1.102 2.846-2.478 3.905-4.061z"/>
</svg>
