<svg xmlns="http://www.w3.org/2000/svg" width="64" height="64" fill="none" viewBox="0 0 64 64">
    <circle cx="32" cy="32" r="32" fill="#fff"/>
    <path fill="#5D43A0" d="M48.73 34.252v11.544h-6.693v-10.77c0-2.705-.966-4.552-3.39-4.552-1.849 0-2.948 1.244-3.433 2.448-.176.43-.221 1.027-.221 1.63v11.243h-6.694s.09-18.24 0-20.13h6.694v2.853c-.013.023-.032.045-.044.066h.044v-.066c.89-1.368 2.476-3.325 6.032-3.325 4.403 0 7.705 2.877 7.705 9.059zm-27.432-18.29c-2.29 0-3.788 1.504-3.788 3.478 0 1.933 1.455 3.48 3.7 3.48h.043c2.335 0 3.786-1.547 3.786-3.48-.044-1.974-1.451-3.477-3.741-3.477zm-3.39 29.834h6.69v-20.13h-6.69v20.13z"/>
</svg>
