<svg xmlns="http://www.w3.org/2000/svg" width="20" height="16" fill="none" viewBox="0 0 20 16">
    <path fill="#828FEB" d="M17.558 0H2.446A2.448 2.448 0 0 0 0 2.446v10.329a2.448 2.448 0 0 0 2.446 2.445h15.108A2.448 2.448 0 0 0 20 12.775V2.45A2.445 2.445 0 0 0 17.558 0zm1.329 12.775a1.33 1.33 0 0 1-1.329 1.328H2.446a1.33 1.33 0 0 1-1.329-1.328V2.45A1.33 1.33 0 0 1 2.446 1.12h15.108a1.33 1.33 0 0 1 1.329 1.329v10.325h.004z"/>
    <path fill="#828FEB" d="M12.613 7.482l4.892-4.386a.561.561 0 0 0 .041-.79.561.561 0 0 0-.79-.042L10.01 8.318 8.694 7.143c-.004-.004-.008-.008-.008-.012a.828.828 0 0 0-.09-.08L3.24 2.26a.558.558 0 0 0-.79.045.558.558 0 0 0 .045.79l4.95 4.425-4.929 4.614a.56.56 0 0 0 .766.819l5.003-4.68 1.357 1.212a.558.558 0 0 0 .745-.004l1.394-1.25 4.975 4.726a.558.558 0 0 0 .77-.811l-4.913-4.664z"/>
</svg>
